# xmcd CD database file
#
# Track frame offsets:
#	150
#	17688
#	32403
#	41871
#	58005
#	73182
#	85257
#	96231
#	108051
#	118362
#	131199
#	143406
#
# Disc length: 2218 seconds
#
# Revision: 0
# Processed by: cddbd v1.5.1PL0 Copyright (c) Steve Scherf et al.
# Submitted via: CDex 1.51
#
DISCID=a608a80c
DTITLE=Ray Charles - Los años dorados Volumen 2
DYEAR=1998
DGENRE=Blues
TTITLE0=What'd I Say
TTITLE1=Born To Lose
TTITLE2=Busted
TTITLE3=Come Rain Or Come Shine
TTITLE4=Here We Go Again
TTITLE5=C C Rider
TTITLE6=A Sentimental Blues
TTITLE7=Baby Tell Me What I've Done
TTITLE8=Now She's Gone
TTITLE9=I Will Not Let You Go
TTITLE10=Goin' Down Slow
TTITLE11=Till The Next Somewhere (with Dee Dee Bridgewater)
EXTD=YEAR: 1998
EXTT0=
EXTT1=
EXTT2=
EXTT3=
EXTT4=
EXTT5=
EXTT6=
EXTT7=
EXTT8=
EXTT9=
EXTT10=
EXTT11=
PLAYORDER=
